<svg width="480" height="260" viewBox="0 0 480 260" xmlns="http://www.w3.org/2000/svg">
  <defs>
    <clipPath id="cardClip"><rect x="0" y="0" width="480" height="260" rx="18"/></clipPath>
    <linearGradient id="bgGrad" x1="0%" y1="0%" x2="100%" y2="100%">
      <stop offset="0%" stop-color="#050914"/><stop offset="100%" stop-color="#0d1e3f"/>
    </linearGradient>
    <style>text { user-select:none; }</style>
  </defs>
  <g clip-path="url(#cardClip)">
    <rect x="0" y="0" width="480" height="260" fill="url(#bgGrad)"/>
    <g stroke="rgba(56,217,255,0.35)" stroke-width="0.5" opacity="0.15">
      <line x1="0" y1="0" x2="0" y2="260"/><line x1="40" y1="0" x2="40" y2="260"/><line x1="80" y1="0" x2="80" y2="260"/><line x1="120" y1="0" x2="120" y2="260"/><line x1="160" y1="0" x2="160" y2="260"/><line x1="200" y1="0" x2="200" y2="260"/><line x1="240" y1="0" x2="240" y2="260"/><line x1="280" y1="0" x2="280" y2="260"/><line x1="320" y1="0" x2="320" y2="260"/><line x1="360" y1="0" x2="360" y2="260"/><line x1="400" y1="0" x2="400" y2="260"/><line x1="440" y1="0" x2="440" y2="260"/><line x1="480" y1="0" x2="480" y2="260"/>
      <line x1="0" y1="0" x2="480" y2="0"/><line x1="0" y1="40" x2="480" y2="40"/><line x1="0" y1="80" x2="480" y2="80"/><line x1="0" y1="120" x2="480" y2="120"/><line x1="0" y1="160" x2="480" y2="160"/><line x1="0" y1="200" x2="480" y2="200"/><line x1="0" y1="240" x2="480" y2="240"/>
    </g>
    <text x="24" y="30" font-family="'Poppins',sans-serif" font-size="14" font-weight="700" fill="#eaf3ff">Most Used Languages</text>
    
    <g transform="translate(24,60)">
      <text x="0" y="-6" font-family="'Poppins',sans-serif" font-size="12" fill="#eaf3ff">JavaScript</text>
      <text x="432" y="-6" text-anchor="end" font-family="'JetBrains Mono',monospace" font-size="11" fill="#8ea3c9">34.5%</text>
      <rect x="0" y="0" width="432" height="9" rx="4.5" fill="rgba(10,22,48,0.55)" stroke="rgba(56,217,255,0.35)" stroke-width="0.7"/>
      <rect x="0" y="0" width="0" height="9" rx="4.5" fill="#f1e05a">
        <animate attributeName="width" from="0" to="149.0" begin="0.50s" dur="1s" fill="freeze" calcMode="spline" keySplines="0.2 0.7 0.2 1"/>
        <animate attributeName="opacity" values="0.75;1;0.75" dur="2.8s" begin="1.50s" repeatCount="indefinite"/>
      </rect>
    </g>
    <g transform="translate(24,96)">
      <text x="0" y="-6" font-family="'Poppins',sans-serif" font-size="12" fill="#eaf3ff">Python</text>
      <text x="432" y="-6" text-anchor="end" font-family="'JetBrains Mono',monospace" font-size="11" fill="#8ea3c9">27.0%</text>
      <rect x="0" y="0" width="432" height="9" rx="4.5" fill="rgba(10,22,48,0.55)" stroke="rgba(56,217,255,0.35)" stroke-width="0.7"/>
      <rect x="0" y="0" width="0" height="9" rx="4.5" fill="#3572A5">
        <animate attributeName="width" from="0" to="116.6" begin="0.68s" dur="1s" fill="freeze" calcMode="spline" keySplines="0.2 0.7 0.2 1"/>
        <animate attributeName="opacity" values="0.75;1;0.75" dur="2.8s" begin="1.68s" repeatCount="indefinite"/>
      </rect>
    </g>
    <g transform="translate(24,132)">
      <text x="0" y="-6" font-family="'Poppins',sans-serif" font-size="12" fill="#eaf3ff">Java</text>
      <text x="432" y="-6" text-anchor="end" font-family="'JetBrains Mono',monospace" font-size="11" fill="#8ea3c9">18.5%</text>
      <rect x="0" y="0" width="432" height="9" rx="4.5" fill="rgba(10,22,48,0.55)" stroke="rgba(56,217,255,0.35)" stroke-width="0.7"/>
      <rect x="0" y="0" width="0" height="9" rx="4.5" fill="#b07219">
        <animate attributeName="width" from="0" to="79.9" begin="0.86s" dur="1s" fill="freeze" calcMode="spline" keySplines="0.2 0.7 0.2 1"/>
        <animate attributeName="opacity" values="0.75;1;0.75" dur="2.8s" begin="1.86s" repeatCount="indefinite"/>
      </rect>
    </g>
    <g transform="translate(24,168)">
      <text x="0" y="-6" font-family="'Poppins',sans-serif" font-size="12" fill="#eaf3ff">TypeScript</text>
      <text x="432" y="-6" text-anchor="end" font-family="'JetBrains Mono',monospace" font-size="11" fill="#8ea3c9">12.0%</text>
      <rect x="0" y="0" width="432" height="9" rx="4.5" fill="rgba(10,22,48,0.55)" stroke="rgba(56,217,255,0.35)" stroke-width="0.7"/>
      <rect x="0" y="0" width="0" height="9" rx="4.5" fill="#3178c6">
        <animate attributeName="width" from="0" to="51.8" begin="1.04s" dur="1s" fill="freeze" calcMode="spline" keySplines="0.2 0.7 0.2 1"/>
        <animate attributeName="opacity" values="0.75;1;0.75" dur="2.8s" begin="2.04s" repeatCount="indefinite"/>
      </rect>
    </g>
    <g transform="translate(24,204)">
      <text x="0" y="-6" font-family="'Poppins',sans-serif" font-size="12" fill="#eaf3ff">HTML/CSS</text>
      <text x="432" y="-6" text-anchor="end" font-family="'JetBrains Mono',monospace" font-size="11" fill="#8ea3c9">8.0%</text>
      <rect x="0" y="0" width="432" height="9" rx="4.5" fill="rgba(10,22,48,0.55)" stroke="rgba(56,217,255,0.35)" stroke-width="0.7"/>
      <rect x="0" y="0" width="0" height="9" rx="4.5" fill="#e34c26">
        <animate attributeName="width" from="0" to="34.6" begin="1.22s" dur="1s" fill="freeze" calcMode="spline" keySplines="0.2 0.7 0.2 1"/>
        <animate attributeName="opacity" values="0.75;1;0.75" dur="2.8s" begin="2.22s" repeatCount="indefinite"/>
      </rect>
    </g>
    <rect x="0.5" y="0.5" width="479" height="259" rx="17.5" fill="none" stroke="rgba(56,217,255,0.35)" stroke-width="1.2"/>
  </g>
</svg>